<svg width="20" height="20" viewBox="0 0 20 20" fill="none" xmlns="http://www.w3.org/2000/svg">
<rect width="20" height="20" rx="5" fill="#FD2016"/>
<path d="M13.8574 7.83043L13.1525 7.14051C13.0574 7.04749 12.9386 7.00098 12.804 7.00098C12.6693 7.00098 12.5505 7.04749 12.4554 7.14051L9.06535 10.4583L7.55248 8.96997C7.45743 8.87695 7.33861 8.83043 7.20396 8.83043C7.06931 8.83043 6.9505 8.87695 6.85545 8.96997L6.1505 9.65989C6.04752 9.75291 6 9.86919 6 10.001C6 10.1328 6.04752 10.249 6.14257 10.3421L8.01188 12.1715L8.71683 12.8614C8.81188 12.9545 8.93069 13.001 9.06535 13.001C9.2 13.001 9.31881 12.9545 9.41386 12.8614L10.1188 12.1715L13.8574 8.5126C13.9525 8.41958 14 8.3033 14 8.17152C14 8.03974 13.9525 7.92346 13.8574 7.83043Z" fill="white"/>
</svg>
